<svg id="New_Layer" data-name="New Layer" xmlns="http://www.w3.org/2000/svg" viewBox="0 0 447 8">
  <defs>
    <style>
      .cls-1 {
        fill: #080405;
        fill-rule: evenodd;
      }
    </style>
  </defs>
  <path class="cls-1" d="M212-91.5c17.2-.16,31-1,40.88-1.8,10.72-.88,21.2-2.08,21.84-2.16,12.48-1.44,15.68-2.16,24.08-3,5.68-.52,14.32-1.12,25.2-1.08h0v8H212Z" transform="translate(124 99.5)"/>
  <path class="cls-1" d="M212-91.5c-17.2-.16-31-1-40.88-1.8-10.72-.88-21.2-2.08-21.84-2.16-12.48-1.44-15.68-2.16-24.08-3-5.76-.52-14.32-1.12-25.2-1.08h0v8H212Z" transform="translate(124 99.5)"/>
  <path class="cls-1" d="M-12-91.5c17.2-.16,31-1,40.88-1.8,10.72-.88,21.2-2.08,21.84-2.16,12.48-1.44,15.68-2.16,24.08-3,5.68-.52,14.32-1.12,25.2-1.08h0v8H-12Z" transform="translate(124 99.5)"/>
  <path class="cls-1" d="M-12-91.5c-17.2-.16-31-1-40.88-1.8-10.72-.88-21.2-2.08-21.84-2.16-12.48-1.44-15.68-2.16-24.08-3-5.76-.52-14.32-1.12-25.2-1.08h0v8H-12Z" transform="translate(124 99.5)"/>
</svg>
